<svg xmlns="http://www.w3.org/2000/svg" xmlns:xlink="http://www.w3.org/1999/xlink" height="128" width="128"><defs><clipPath id="f"><path d="M88 96h20v20H88zm0 0"/></clipPath><clipPath id="i"><path d="M20 8h88v108H20zm0 0"/></clipPath><clipPath id="B"><path d="M20 8h88v108H20zm0 0"/></clipPath><clipPath id="C"><path d="M100 116H28a8 8 0 01-8-8V16a8 8 0 018-8h72a8 8 0 018 8v92a8 8 0 01-8 8zm0 0"/></clipPath><clipPath id="s"><path d="M0 0h128v128H0z"/></clipPath><clipPath id="q"><path d="M0 0h128v128H0z"/></clipPath><clipPath id="b"><path d="M0 0h192v152H0z"/></clipPath><clipPath id="x"><path d="M108 96l-20 20h-5.715V90.285H108zm0 0"/></clipPath><clipPath id="g"><path d="M108 96l-20 20h-5.715V90.285H108zm0 0"/></clipPath><clipPath id="w"><path d="M88 96h20v20H88zm0 0"/></clipPath><clipPath id="j"><path d="M100 116H28a8 8 0 01-8-8V16a8 8 0 018-8h72a8 8 0 018 8v92a8 8 0 01-8 8zm0 0"/></clipPath><clipPath id="n"><path d="M0 0h128v128H0z"/></clipPath><clipPath id="c"><path d="M0 0h192v152H0z"/></clipPath><clipPath id="d"><path d="M0 0h128v128H0z"/></clipPath><linearGradient gradientTransform="matrix(0 .17857 .17857 0 84.429 44.571)" y2="72" x2="340" y1="76" x1="344" gradientUnits="userSpaceOnUse" id="h"><stop offset="0" stop-color="#d5d3cf"/><stop offset="1" stop-color="#fff"/></linearGradient><linearGradient gradientTransform="matrix(0 .37 -.98462 0 295.385 -30.36)" y2="235" x2="428" y1="235" x1="300" gradientUnits="userSpaceOnUse" id="r"><stop offset="0" stop-color="#f9f06b"/><stop offset="1" stop-color="#f5c211"/></linearGradient><linearGradient gradientTransform="matrix(.07621 -.4442 .4442 -.07621 77.726 159.838)" y2="-127.399" x2="158.518" y1="-97.698" x1="128.817" gradientUnits="userSpaceOnUse" id="E"><stop offset="0" stop-color="#d0bb8e"/><stop offset="1" stop-color="#fff"/></linearGradient><linearGradient gradientTransform="rotate(180 68 -86)" y2="-276" x2="116" y1="-276" x1="28" gradientUnits="userSpaceOnUse" id="e"><stop offset="0" stop-color="#c0bfbc"/><stop offset=".045" stop-color="#fff"/><stop offset=".091" stop-color="#deddda"/><stop offset=".909" stop-color="#deddda"/><stop offset=".955" stop-color="#fff"/><stop offset="1" stop-color="#c0bfbc"/></linearGradient><linearGradient gradientTransform="matrix(0 .17857 .17857 0 84.429 44.571)" y2="72" x2="340" y1="76" x1="344" gradientUnits="userSpaceOnUse" id="y"><stop offset="0" stop-color="#d5d3cf"/><stop offset="1" stop-color="#fff"/></linearGradient><linearGradient gradientTransform="matrix(.07621 -.4442 .4442 -.07621 77.726 159.838)" y2="-127.399" x2="158.518" y1="-97.698" x1="128.817" gradientUnits="userSpaceOnUse" id="m"><stop offset="0" stop-color="#d0bb8e"/><stop offset="1" stop-color="#fff"/></linearGradient><linearGradient gradientTransform="rotate(180 68 -86)" y2="-276" x2="116" y1="-276" x1="28" gradientUnits="userSpaceOnUse" id="v"><stop offset="0" stop-color="#c0bfbc"/><stop offset=".045" stop-color="#fff"/><stop offset=".091" stop-color="#deddda"/><stop offset=".909" stop-color="#deddda"/><stop offset=".955" stop-color="#fff"/><stop offset="1" stop-color="#c0bfbc"/></linearGradient><g clip-path="url(#d)" id="o"><path d="M100 122H28a8 8 0 01-8-8V99.75a8 8 0 018-8h72a8 8 0 018 8V114a8 8 0 01-8 8zm0 0" fill="#1a5fb4"/><path d="M100 120H28a8 8 0 01-8-8V88a8 8 0 018-8h72a8 8 0 018 8v24a8 8 0 01-8 8zm0 0" fill="url(#e)"/><path d="M100 116H28a8 8 0 01-8-8V16a8 8 0 018-8h72a8 8 0 018 8v92a8 8 0 01-8 8zm0 0" fill="#f6f5f4"/><path d="M28 18a1.999 1.999 0 100 4 1.999 1.999 0 100-4zm8 0a1.999 1.999 0 100 4 1.999 1.999 0 100-4zm8 0a1.999 1.999 0 100 4 1.999 1.999 0 100-4zm8 0a1.999 1.999 0 100 4 1.999 1.999 0 100-4zm8 0a1.999 1.999 0 100 4 1.999 1.999 0 100-4zm8 0a1.999 1.999 0 100 4 1.999 1.999 0 100-4zm8 0a1.999 1.999 0 100 4 1.999 1.999 0 100-4zm8 0a1.999 1.999 0 100 4 1.999 1.999 0 100-4zm8 0a1.999 1.999 0 100 4 1.999 1.999 0 100-4zm0 0M98 20a1.999 1.999 0 104 0 1.999 1.999 0 10-4 0zm0 0M108 22a1.998 1.998 0 01-1.73-1 1.99 1.99 0 010-2c.355-.617 1.015-1 1.73-1M20 22c.715 0 1.375-.383 1.73-1a1.99 1.99 0 000-2A1.998 1.998 0 0020 18" fill="#d5d3cf"/><g clip-path="url(#f)"><g clip-path="url(#g)"><path d="M88 104v9.715a8 8 0 008 8h9.715a8 8 0 008-8V104a8 8 0 00-8-8H96a8 8 0 00-8 8zm0 0" fill="url(#h)"/></g></g><g clip-path="url(#i)"><g clip-path="url(#j)"><use mask="url(#k)" xlink:href="#l"/></g></g><path d="M32 104V84l20 20zm0 0" fill="url(#m)"/><path d="M32 104v-8l8 8zm0 0" fill="#424048"/><path d="M50 102L34 86l67.945-67.945 16 16zm0 0" fill="#f6d32d"/><path d="M37.887 89.887L32 84l68-68 5.836 5.941zm0 0" fill="#f9f06b"/><path d="M46.113 98.113L52 104l68-68-5.941-5.836zm0 0" fill="#e5a50a"/></g><g filter="url(#a)" clip-path="url(#n)" id="p"><use xlink:href="#o"/></g><g clip-path="url(#b)" id="l"><path d="M100 16L32 84v20h22l68-68-7.867-5.762-8.297-8.297zm0 0"/></g><g clip-path="url(#q)" id="u"><path d="M128 80.64V128H0V80.64zm0 0" fill="url(#r)"/><path d="M13.309 80.64L60.664 128H81.88l-47.36-47.36zm42.421 0L103.094 128h21.215L76.945 80.64zm42.43 0L128 110.48V89.27l-8.629-8.63zM0 88.548v21.215L18.238 128h21.215zm0 0"/></g><g clip-path="url(#s)" id="A"><use mask="url(#t)" xlink:href="#u"/></g><mask id="k"><g filter="url(#a)"><path fill-opacity=".2" d="M0 0h128v128H0z"/></g></mask><mask id="z"><use xlink:href="#p"/></mask><mask id="t"><g filter="url(#a)"><path fill-opacity=".8" d="M0 0h128v128H0z"/></g></mask><mask id="D"><g filter="url(#a)"><path fill-opacity=".2" d="M0 0h128v128H0z"/></g></mask><filter height="100%" width="100%" y="0%" x="0%" filterUnits="objectBoundingBox" id="a"><feColorMatrix values="0 0 0 0 1 0 0 0 0 1 0 0 0 0 1 0 0 0 1 0" in="SourceGraphic"/></filter></defs><path d="M100 122H28a8 8 0 01-8-8V99.75a8 8 0 018-8h72a8 8 0 018 8V114a8 8 0 01-8 8zm0 0" fill="#1a5fb4"/><path d="M100 120H28a8 8 0 01-8-8V88a8 8 0 018-8h72a8 8 0 018 8v24a8 8 0 01-8 8zm0 0" fill="url(#v)"/><path d="M100 116H28a8 8 0 01-8-8V16a8 8 0 018-8h72a8 8 0 018 8v92a8 8 0 01-8 8zm0 0" fill="#f6f5f4"/><path d="M28 18a1.999 1.999 0 100 4 1.999 1.999 0 100-4zm8 0a1.999 1.999 0 100 4 1.999 1.999 0 100-4zm8 0a1.999 1.999 0 100 4 1.999 1.999 0 100-4zm8 0a1.999 1.999 0 100 4 1.999 1.999 0 100-4zm8 0a1.999 1.999 0 100 4 1.999 1.999 0 100-4zm8 0a1.999 1.999 0 100 4 1.999 1.999 0 100-4zm8 0a1.999 1.999 0 100 4 1.999 1.999 0 100-4zm8 0a1.999 1.999 0 100 4 1.999 1.999 0 100-4zm8 0a1.999 1.999 0 100 4 1.999 1.999 0 100-4zm0 0M20 22c.715 0 1.375-.383 1.73-1a1.99 1.99 0 000-2A1.998 1.998 0 0020 18" fill="#d5d3cf"/><g clip-path="url(#w)"><g clip-path="url(#x)"><path d="M88 104v9.715a8 8 0 008 8h9.715a8 8 0 008-8V104a8 8 0 00-8-8H96a8 8 0 00-8 8zm0 0" fill="url(#y)"/></g></g><use mask="url(#z)" xlink:href="#A"/><path d="M98 20a1.999 1.999 0 104 0 1.999 1.999 0 10-4 0zm0 0M108 22a1.998 1.998 0 01-1.73-1 1.99 1.99 0 010-2c.355-.617 1.015-1 1.73-1" fill="#d5d3cf"/><g clip-path="url(#B)"><g clip-path="url(#C)"><use mask="url(#D)" xlink:href="#l"/></g></g><path d="M32 104V84l20 20zm0 0" fill="url(#E)"/><path d="M32 104v-8l8 8zm0 0" fill="#424048"/><path d="M50 102L34 86l67.945-67.945 16 16zm0 0" fill="#f6d32d"/><path d="M37.887 89.887L32 84l68-68 5.836 5.941zm0 0" fill="#f9f06b"/><path d="M46.113 98.113L52 104l68-68-5.941-5.836zm0 0" fill="#e5a50a"/></svg>