<?xml version="1.0" encoding="UTF-8" standalone="no"?>
<svg
   xmlns:dc="http://purl.org/dc/elements/1.1/"
   xmlns:cc="http://creativecommons.org/ns#"
   xmlns:rdf="http://www.w3.org/1999/02/22-rdf-syntax-ns#"
   xmlns:svg="http://www.w3.org/2000/svg"
   xmlns="http://www.w3.org/2000/svg"
   xmlns:xlink="http://www.w3.org/1999/xlink"
   viewBox="0 0 128 128"
   style="display:inline;enable-background:new"
   version="1.0"
   id="svg11300"
   height="128"
   width="128">
  <title
     id="title4162">Adwaita Icon Template</title>
  <defs
     id="defs3">
    <clipPath
       id="clipPath2213"
       clipPathUnits="userSpaceOnUse">
      <rect
         ry="8"
         rx="8"
         y="-188"
         x="160"
         height="56"
         width="16"
         id="rect2215"
         style="display:inline;opacity:1;vector-effect:none;fill:none;fill-opacity:1;stroke:#000000;stroke-width:1;stroke-linecap:butt;stroke-linejoin:miter;stroke-miterlimit:4;stroke-dasharray:none;stroke-dashoffset:0;stroke-opacity:1;marker:none;marker-start:none;marker-mid:none;marker-end:none;paint-order:normal;enable-background:new" />
    </clipPath>
    <clipPath
       id="clipPath987"
       clipPathUnits="userSpaceOnUse">
      <rect
         ry="8"
         rx="8"
         y="-188"
         x="160"
         height="56"
         width="16"
         id="rect985"
         style="display:inline;opacity:1;vector-effect:none;fill:none;fill-opacity:1;stroke:#000000;stroke-width:1;stroke-linecap:butt;stroke-linejoin:miter;stroke-miterlimit:4;stroke-dasharray:none;stroke-dashoffset:0;stroke-opacity:1;marker:none;marker-start:none;marker-mid:none;marker-end:none;paint-order:normal;enable-background:new" />
    </clipPath>
    <clipPath
       id="clipPath991"
       clipPathUnits="userSpaceOnUse">
      <rect
         ry="8"
         rx="8"
         y="-188"
         x="160"
         height="56"
         width="16"
         id="rect989"
         style="display:inline;opacity:1;vector-effect:none;fill:none;fill-opacity:1;stroke:#000000;stroke-width:1;stroke-linecap:butt;stroke-linejoin:miter;stroke-miterlimit:4;stroke-dasharray:none;stroke-dashoffset:0;stroke-opacity:1;marker:none;marker-start:none;marker-mid:none;marker-end:none;paint-order:normal;enable-background:new" />
    </clipPath>
    <clipPath
       id="clipPath995"
       clipPathUnits="userSpaceOnUse">
      <rect
         ry="8"
         rx="8"
         y="-188"
         x="160"
         height="56"
         width="16"
         id="rect993"
         style="display:inline;opacity:1;vector-effect:none;fill:none;fill-opacity:1;stroke:#000000;stroke-width:1;stroke-linecap:butt;stroke-linejoin:miter;stroke-miterlimit:4;stroke-dasharray:none;stroke-dashoffset:0;stroke-opacity:1;marker:none;marker-start:none;marker-mid:none;marker-end:none;paint-order:normal;enable-background:new" />
    </clipPath>
    <clipPath
       id="clipPath999"
       clipPathUnits="userSpaceOnUse">
      <rect
         ry="8"
         rx="8"
         y="-188"
         x="160"
         height="56"
         width="16"
         id="rect997"
         style="display:inline;opacity:1;vector-effect:none;fill:none;fill-opacity:1;stroke:#000000;stroke-width:1;stroke-linecap:butt;stroke-linejoin:miter;stroke-miterlimit:4;stroke-dasharray:none;stroke-dashoffset:0;stroke-opacity:1;marker:none;marker-start:none;marker-mid:none;marker-end:none;paint-order:normal;enable-background:new" />
    </clipPath>
    <clipPath
       id="clipPath1003"
       clipPathUnits="userSpaceOnUse">
      <rect
         ry="8"
         rx="8"
         y="-188"
         x="160"
         height="56"
         width="16"
         id="rect1001"
         style="display:inline;opacity:1;vector-effect:none;fill:none;fill-opacity:1;stroke:#000000;stroke-width:1;stroke-linecap:butt;stroke-linejoin:miter;stroke-miterlimit:4;stroke-dasharray:none;stroke-dashoffset:0;stroke-opacity:1;marker:none;marker-start:none;marker-mid:none;marker-end:none;paint-order:normal;enable-background:new" />
    </clipPath>
    <linearGradient
       id="linearGradient1005">
      <stop
         style="stop-color:#d0bb8e;stop-opacity:1"
         offset="0"
         id="stop1001" />
      <stop
         style="stop-color:#ffffff;stop-opacity:1"
         offset="1"
         id="stop1003" />
    </linearGradient>
    <linearGradient
       id="linearGradient1723">
      <stop
         id="stop1719"
         offset="0"
         style="stop-color:#d5d3cf;stop-opacity:1" />
      <stop
         style="stop-color:#f6f5f4;stop-opacity:1"
         offset="0.04545454"
         id="stop1731" />
      <stop
         style="stop-color:#d5d3cf;stop-opacity:1"
         offset="0.09090909"
         id="stop1729" />
      <stop
         style="stop-color:#d5d3cf;stop-opacity:1"
         offset="0.90909088"
         id="stop1727" />
      <stop
         id="stop1733"
         offset="0.95454544"
         style="stop-color:#eeeeec;stop-opacity:1" />
      <stop
         id="stop1721"
         offset="1"
         style="stop-color:#d5d3cf;stop-opacity:1" />
    </linearGradient>
    <linearGradient
       id="linearGradient1351-3">
      <stop
         id="stop1347"
         offset="0"
         style="stop-color:#d5d3cf;stop-opacity:1" />
      <stop
         id="stop1349-6"
         offset="1"
         style="stop-color:#ffffff;stop-opacity:1" />
    </linearGradient>
    <clipPath
       id="clipPath1609"
       clipPathUnits="userSpaceOnUse">
      <path
         style="fill:#e74747;stroke:none;stroke-width:0.25px;stroke-linecap:butt;stroke-linejoin:miter;stroke-opacity:1"
         d="m 252,116 28,-28 v -8 h -36 v 36 z"
         id="path1611" />
    </clipPath>
    <linearGradient
       gradientTransform="translate(-135.99999)"
       gradientUnits="userSpaceOnUse"
       y2="-244"
       x2="111.99999"
       y1="-244"
       x1="31.99999"
       id="linearGradient1159"
       xlink:href="#linearGradient1723" />
    <linearGradient
       y2="-127.39915"
       x2="158.51802"
       y1="-97.698288"
       x1="128.81717"
       gradientUnits="userSpaceOnUse"
       id="linearGradient1103"
       xlink:href="#linearGradient1005" />
    <clipPath
       id="clipPath2019-7-2"
       clipPathUnits="userSpaceOnUse">
      <path
         id="path2021-5-8"
         d="M 280,124 400,4 392,-276 H 87.999995 v 400 z"
         style="fill:#e74747;stroke:none;stroke-width:1px;stroke-linecap:butt;stroke-linejoin:miter;stroke-opacity:1" />
    </clipPath>
    <clipPath
       id="clipPath1609-7"
       clipPathUnits="userSpaceOnUse">
      <path
         style="fill:#e74747;stroke:none;stroke-width:0.25px;stroke-linecap:butt;stroke-linejoin:miter;stroke-opacity:1"
         d="m 252,116 28,-28 v -8 h -36 v 36 z"
         id="path1611-5" />
    </clipPath>
    <linearGradient
       y2="72"
       x2="340"
       y1="76"
       x1="344"
       gradientTransform="matrix(0.25,0,0,0.25,180,83)"
       gradientUnits="userSpaceOnUse"
       id="linearGradient1130"
       xlink:href="#linearGradient1351-3" />
  </defs>
  <metadata
     id="metadata4">
    <rdf:RDF>
      <cc:Work
         rdf:about="">
        <dc:format>image/svg+xml</dc:format>
        <dc:type
           rdf:resource="http://purl.org/dc/dcmitype/StillImage" />
        <dc:creator>
          <cc:Agent>
            <dc:title>GNOME Design Team</dc:title>
          </cc:Agent>
        </dc:creator>
        <dc:source />
        <cc:license
           rdf:resource="http://creativecommons.org/licenses/by-sa/4.0/" />
        <dc:title>Adwaita Icon Template</dc:title>
        <dc:subject>
          <rdf:Bag />
        </dc:subject>
        <dc:date />
        <dc:rights>
          <cc:Agent>
            <dc:title />
          </cc:Agent>
        </dc:rights>
        <dc:publisher>
          <cc:Agent>
            <dc:title />
          </cc:Agent>
        </dc:publisher>
        <dc:identifier />
        <dc:relation />
        <dc:language />
        <dc:coverage />
        <dc:description />
        <dc:contributor>
          <cc:Agent>
            <dc:title />
          </cc:Agent>
        </dc:contributor>
      </cc:Work>
      <cc:License
         rdf:about="http://creativecommons.org/licenses/by-sa/4.0/">
        <cc:permits
           rdf:resource="http://creativecommons.org/ns#Reproduction" />
        <cc:permits
           rdf:resource="http://creativecommons.org/ns#Distribution" />
        <cc:requires
           rdf:resource="http://creativecommons.org/ns#Notice" />
        <cc:requires
           rdf:resource="http://creativecommons.org/ns#Attribution" />
        <cc:permits
           rdf:resource="http://creativecommons.org/ns#DerivativeWorks" />
        <cc:requires
           rdf:resource="http://creativecommons.org/ns#ShareAlike" />
      </cc:License>
    </rdf:RDF>
  </metadata>
  <g
     transform="translate(0,-172)"
     style="display:inline"
     id="layer1">
    <g
       style="display:inline"
       id="layer9">
      <rect
         clip-path="none"
         ry="8"
         rx="8"
         y="-294"
         x="-104"
         height="30.25"
         width="80"
         id="rect1167"
         style="opacity:1;vector-effect:none;fill:#1a5fb4;fill-opacity:1;stroke:none;stroke-width:13.71876526;stroke-linecap:butt;stroke-linejoin:miter;stroke-miterlimit:4;stroke-dasharray:none;stroke-dashoffset:0;stroke-opacity:1;marker:none;marker-start:none;marker-mid:none;marker-end:none;paint-order:normal"
         transform="scale(-1)" />
      <g
         transform="matrix(0.25,0,0,0.25,-374,202.04808)"
         clip-path="url(#clipPath2213)"
         id="g8005"
         style="display:inline;enable-background:new" />
      <g
         transform="matrix(0.25,0,0,0.25,-424,202.04808)"
         clip-path="url(#clipPath2213)"
         id="g8015"
         style="display:inline;enable-background:new" />
      <g
         transform="matrix(0.25,0,0,0.25,-414,202.04808)"
         clip-path="url(#clipPath2213)"
         id="g8025"
         style="display:inline;enable-background:new" />
      <g
         transform="matrix(0.25,0,0,0.25,-404,202.04808)"
         clip-path="url(#clipPath2213)"
         id="g8035"
         style="display:inline;enable-background:new" />
      <g
         transform="matrix(0.25,0,0,0.25,-394,202.04808)"
         clip-path="url(#clipPath2213)"
         id="g8045"
         style="display:inline;enable-background:new" />
      <g
         transform="matrix(0.25,0,0,0.25,-384,202.04808)"
         clip-path="url(#clipPath2213)"
         id="g8055"
         style="display:inline;enable-background:new" />
      <rect
         transform="scale(-1)"
         style="opacity:1;vector-effect:none;fill:url(#linearGradient1159);fill-opacity:1;stroke:none;stroke-width:13.71876526;stroke-linecap:butt;stroke-linejoin:miter;stroke-miterlimit:4;stroke-dasharray:none;stroke-dashoffset:0;stroke-opacity:1;marker:none;marker-start:none;marker-mid:none;marker-end:none;paint-order:normal"
         id="rect1151"
         width="80"
         height="40"
         x="-104"
         y="-292"
         rx="8"
         ry="8"
         clip-path="none" />
      <rect
         transform="scale(-1)"
         style="opacity:1;vector-effect:none;fill:#f6f5f4;fill-opacity:1;stroke:none;stroke-width:13.71876526;stroke-linecap:butt;stroke-linejoin:miter;stroke-miterlimit:4;stroke-dasharray:none;stroke-dashoffset:0;stroke-opacity:1;marker:none;marker-start:none;marker-mid:none;marker-end:none;paint-order:normal"
         id="rect1062"
         width="80"
         height="48"
         x="-104"
         y="-228"
         clip-path="none" />
      <rect
         clip-path="none"
         ry="8"
         rx="8"
         y="-288"
         x="-104"
         height="108"
         width="80"
         id="rect1161"
         style="opacity:1;vector-effect:none;fill:#f6f5f4;fill-opacity:1;stroke:none;stroke-width:13.71876526;stroke-linecap:butt;stroke-linejoin:miter;stroke-miterlimit:4;stroke-dasharray:none;stroke-dashoffset:0;stroke-opacity:1;marker:none;marker-start:none;marker-mid:none;marker-end:none;paint-order:normal"
         transform="scale(-1)" />
      <path
         style="display:inline;opacity:0.1;vector-effect:none;fill:#000000;fill-opacity:1;stroke:none;stroke-width:6;stroke-linecap:round;stroke-linejoin:miter;stroke-miterlimit:4;stroke-dasharray:none;stroke-dashoffset:0;stroke-opacity:1;marker:none;marker-start:none;marker-mid:none;marker-end:none;paint-order:normal;enable-background:new"
         d="m 40,218 1.146,4.5835 1.68261,6.73046 34.52833,34.77833 0.0254,0.0254 2.8032,-2.85401 2.82812,-2.82812 2.85403,-2.80323 -0.0254,-0.0254 -34.52832,-34.77832 -6.76709,-1.69189 z"
         id="path1115" />
      <rect
         style="display:inline;opacity:1;fill:url(#linearGradient1130);fill-opacity:1;stroke:none;stroke-width:0.5;stroke-linecap:butt;stroke-linejoin:miter;stroke-miterlimit:4;stroke-dasharray:none;stroke-dashoffset:0;stroke-opacity:1;marker:none;marker-start:none;marker-mid:none;marker-end:none;paint-order:normal;enable-background:new"
         id="rect1056-3"
         width="36"
         height="36"
         x="252"
         y="88"
         rx="11.2"
         ry="11.2"
         transform="matrix(0,0.71428571,0.71428571,0,21.142857,88.000008)"
         clip-path="url(#clipPath1609-7)" />
      <g
         id="g1052"
         transform="matrix(0.25,0,0,0.25,-56.602644,254.10851)"
         style="display:inline;enable-background:new">
        <g
           transform="matrix(0.49999993,0.70710678,-0.49999993,0.70710678,318.00002,-184.81833)"
           id="g1050"
           style="display:inline;stroke-width:1.1892072;enable-background:new">
          <g
             style="stroke-width:1.1892072"
             id="g1040"
             transform="matrix(0.95710691,-0.75000004,0.75000005,0.45710668,46.143255,123.91498)">
            <path
               id="path1038"
               d="m 147.71569,-128.28431 52.28428,4.28427 -48.00001,48.000006 z"
               style="opacity:1;vector-effect:none;fill:url(#linearGradient1103);fill-opacity:1;stroke:none;stroke-width:28.54097176;stroke-linecap:round;stroke-linejoin:miter;stroke-miterlimit:4;stroke-dasharray:none;stroke-dashoffset:0;stroke-opacity:1;marker:none;marker-start:none;marker-mid:none;marker-end:none;paint-order:normal" />
          </g>
          <path
             id="path1042"
             d="m 91.30972,-45.511411 21.40227,-14.972131 -3.85584,23.352172 z"
             style="display:inline;opacity:1;vector-effect:none;fill:#424048;fill-opacity:1;stroke:none;stroke-width:28.54097176;stroke-linecap:round;stroke-linejoin:miter;stroke-miterlimit:4;stroke-dasharray:none;stroke-dashoffset:0;stroke-opacity:1;marker:none;marker-start:none;marker-mid:none;marker-end:none;paint-order:normal;enable-background:new" />
          <path
             id="path1044"
             d="m 134.62346,-24.825129 9.94113,-57.941124 236.48137,-39.745377 -9.94113,57.941123 z"
             style="display:inline;fill:#e5a50a;fill-opacity:1;stroke:none;stroke-width:1.15728009px;stroke-linecap:butt;stroke-linejoin:miter;stroke-opacity:1;enable-background:new" />
          <path
             id="path1046"
             d="m 141.25089,-63.452545 3.31368,-19.313711 236.65538,-39.775224 -3.4877,19.34356 z"
             style="display:inline;fill:#ffffff;fill-opacity:1;stroke:none;stroke-width:0.81832051px;stroke-linecap:butt;stroke-linejoin:miter;stroke-opacity:1;enable-background:new;opacity:0.2" />
          <path
             id="path1048"
             d="m 137.93717,-44.138836 -3.31373,19.313711 236.65538,-39.775235 3.13972,-19.283855 z"
             style="display:inline;fill:#000000;fill-opacity:1;stroke:none;stroke-width:0.81832051px;stroke-linecap:butt;stroke-linejoin:miter;stroke-opacity:1;enable-background:new;opacity:0.2" />
        </g>
      </g>
      <g
         transform="translate(0,-2)"
         id="g1153">
        <path
           style="display:inline;opacity:1;fill:#d5d3cf;fill-opacity:1;stroke:none;stroke-width:4;stroke-linecap:square;stroke-linejoin:round;stroke-miterlimit:4;stroke-dasharray:none;stroke-dashoffset:0;stroke-opacity:1;enable-background:new"
           d="m 32,188 c -1.10457,0 -2,0.89543 -2,2 0,1.10457 0.89543,2 2,2 1.10457,0 2,-0.89543 2,-2 0,-1.10457 -0.89543,-2 -2,-2 z m 8,0 c -1.10457,0 -2,0.89543 -2,2 0,1.10457 0.89543,2 2,2 1.10457,0 2,-0.89543 2,-2 0,-1.10457 -0.89543,-2 -2,-2 z m 8,0 c -1.10457,0 -2,0.89543 -2,2 0,1.10457 0.89543,2 2,2 1.10457,0 2,-0.89543 2,-2 0,-1.10457 -0.89543,-2 -2,-2 z m 8,0 c -1.10457,0 -2,0.89543 -2,2 0,1.10457 0.89543,2 2,2 1.10457,0 2,-0.89543 2,-2 0,-1.10457 -0.89543,-2 -2,-2 z m 8,0 c -1.10457,0 -2,0.89543 -2,2 0,1.10457 0.89543,2 2,2 1.10457,0 2,-0.89543 2,-2 0,-1.10457 -0.89543,-2 -2,-2 z m 8,0 c -1.10457,0 -2,0.89543 -2,2 0,1.10457 0.89543,2 2,2 1.10457,0 2,-0.89543 2,-2 0,-1.10457 -0.89543,-2 -2,-2 z m 8,0 c -1.10457,0 -2,0.89543 -2,2 0,1.10457 0.89543,2 2,2 1.10457,0 2,-0.89543 2,-2 0,-1.10457 -0.89543,-2 -2,-2 z m 8,0 c -1.10457,0 -2,0.89543 -2,2 0,1.10457 0.89543,2 2,2 1.10457,0 2,-0.89543 2,-2 0,-1.10457 -0.89543,-2 -2,-2 z m 8,0 c -1.10457,0 -2,0.89543 -2,2 0,1.10457 0.89543,2 2,2 1.10457,0 2,-0.89543 2,-2 0,-1.10457 -0.89543,-2 -2,-2 z"
           id="path950-3-7" />
        <path
           style="opacity:1;vector-effect:none;fill:#d5d3cf;fill-opacity:1;stroke:none;stroke-width:16;stroke-linecap:butt;stroke-linejoin:round;stroke-miterlimit:4;stroke-dasharray:none;stroke-dashoffset:0;stroke-opacity:1"
           id="path1146"
           d="m 24,188 a 2,2 0 0 1 2,2 2,2 0 0 1 -2,2 l 0,-2 z" />
        <path
           d="m -104,188 a 2,2 0 0 1 2,2 2,2 0 0 1 -2,2 l 0,-2 z"
           id="path1148"
           style="opacity:1;vector-effect:none;fill:#d5d3cf;fill-opacity:1;stroke:none;stroke-width:16;stroke-linecap:butt;stroke-linejoin:round;stroke-miterlimit:4;stroke-dasharray:none;stroke-dashoffset:0;stroke-opacity:1"
           transform="scale(-1,1)" />
      </g>
    </g>
  </g>
</svg>
